<svg width="252" height="43" viewBox="0 0 252 43" fill="none" xmlns="http://www.w3.org/2000/svg">
<g id="Logo Black" clip-path="url(#clip0_51_22)">
<path id="Vector" d="M0 20.6719C0 7.02969 8.07661 0 20.1047 0C32.1327 0 40.2093 6.94874 40.2093 20.6719V41.9228H30.4082V20.6719C30.4082 12.9012 26.2893 9.17782 20.1109 9.17782C13.9325 9.17782 9.81351 12.9012 9.81351 20.6719V41.9228H0V20.6719Z" fill="white"/>
<path id="Vector_2" d="M42.8395 22.3281V1.07718H52.6406V22.3281C52.6406 30.0988 56.7595 33.8222 62.938 33.8222C69.1164 33.8222 73.2353 30.0988 73.2353 22.3281V1.07718H83.0364V22.3281C83.0364 35.9703 74.9598 43 62.9318 43C50.9037 43 42.8271 36.0513 42.8271 22.3281H42.8395Z" fill="white"/>
<path id="Vector_3" d="M85.8031 18.1937C85.8031 5.87156 93.0547 0 103.681 0C114.307 0 121.478 5.87156 121.478 18.3556V18.6047H111.757V18.1937C111.757 11.5812 108.463 9.17782 103.681 9.17782C98.8981 9.17782 95.6042 11.575 95.6042 18.1937V41.929H85.8031V18.1937Z" fill="white"/>
<path id="Vector_4" d="M124.245 1.07718H134.046V41.929H124.245V1.07718Z" fill="#00E5F5"/>
<path id="Vector_5" d="M136.508 21.5C136.508 9.09687 145.571 0 158.424 0C169.466 0 177.536 6.69968 179.515 16.3756H169.627C167.897 11.9922 163.778 9.18404 158.424 9.18404C151.26 9.18404 146.396 14.3084 146.396 21.5062C146.396 28.704 151.26 33.8284 158.424 33.8284C163.778 33.8284 167.897 31.014 169.627 26.6368H179.515C177.536 36.3128 169.466 43.0125 158.424 43.0125C145.571 43.0125 136.508 33.9156 136.508 21.5125V21.5Z" fill="#00E5F5"/>
<path id="Vector_6" d="M234.203 0C228.13 0 223.167 1.91775 220.022 5.85911C216.207 2.12323 210.848 0 204.533 0C191.599 0 182.536 8.92876 182.536 21.9172C182.536 35.8956 192.914 43.0062 202.802 43.0062C208.546 43.0062 213.565 40.553 216.325 35.7213V41.9353H226.201V21.8425C226.201 21.2074 226.176 20.5785 226.133 19.9683V18.2062C226.133 11.5937 229.426 9.19027 234.209 9.19027C238.992 9.19027 242.286 11.5875 242.286 18.2062V18.6171H252.006V18.3681C252.006 5.88402 244.841 0.0124529 234.209 0.0124529L234.203 0ZM204.446 33.8222C197.281 33.8222 192.418 28.6978 192.418 21.5C192.418 14.3022 197.281 9.17782 204.446 9.17782C211.133 9.17782 215.73 13.636 216.325 20.0741V22.9259C215.736 29.364 211.133 33.8222 204.446 33.8222Z" fill="#00E5F5"/>
</g>
<defs>
<clipPath id="clip0_51_22">
<rect width="252" height="43" fill="white"/>
</clipPath>
</defs>
</svg>
