<svg xmlns="http://www.w3.org/2000/svg" width="22" height="22" viewBox="0 0 22 22" fill="none">
<path d="M10.7707 2.75C11.1188 2.75 11.4065 3.00851 11.4521 3.34407L11.4584 3.43736L11.4595 10.0833H18.1082C18.4879 10.0833 18.7957 10.3911 18.7957 10.7708C18.7957 11.1189 18.537 11.4065 18.2015 11.4521L18.1082 11.4583H11.4595L11.4613 18.1033C11.4614 18.483 11.1537 18.791 10.774 18.791C10.426 18.791 10.1382 18.5325 10.0927 18.1969L10.0863 18.1036L10.0845 11.4583H3.43958C3.05987 11.4583 2.75208 11.1505 2.75208 10.7708C2.75208 10.4228 3.01071 10.1351 3.34629 10.0896L3.43958 10.0833H10.0845L10.0834 3.43764C10.0833 3.05794 10.391 2.75 10.7707 2.75Z" fill="#00CDDC"/>
</svg>